<?xml version="1.0" standalone="no"?>
<!DOCTYPE svg PUBLIC "-//W3C//DTD SVG 1.1//EN" "http://www.w3.org/Graphics/SVG/1.1/DTD/svg11.dtd">
<svg version="1.1" xmlns="http://www.w3.org/2000/svg" viewBox="0 0 694.615472409068 465.86133778420617" width="694.615472409068" height="465.86133778420617"><!-- svg-source:excalidraw --><metadata></metadata><defs><style class="style-fonts">
      </style></defs><g transform="translate(10.228878004603303 13.425330570052267) rotate(0 0.3420202476722807 -1.7126652850261337)" stroke="none"><path fill="#1e1e1e" d="M -1.87,-0.49 Q -1.87,-0.49 -1.57,-0.41 -1.26,-0.33 -1.21,-0.48 -1.15,-0.63 -1.05,-0.76 -0.96,-0.88 -0.84,-0.99 -0.72,-1.09 -0.58,-1.16 -0.44,-1.23 -0.28,-1.27 -0.13,-1.30 0.02,-1.30 0.18,-1.30 0.33,-1.25 0.48,-1.21 0.62,-1.14 0.76,-1.06 0.88,-0.95 0.99,-0.85 1.08,-0.72 1.17,-0.58 1.22,-0.43 1.28,-0.29 1.29,-0.13 1.31,0.02 1.29,0.18 1.26,0.33 1.18,0.53 1.09,0.72 0.95,0.88 0.80,1.03 0.61,1.13 0.43,1.24 0.22,1.27 0.01,1.31 -0.19,1.28 -0.40,1.24 -0.59,1.15 -0.78,1.05 -0.93,0.90 -1.07,0.74 -1.17,0.55 -1.26,0.36 -1.28,0.15 -1.31,-0.05 -1.26,-0.26 -1.22,-0.47 -1.11,-0.65 -1.00,-0.83 -0.84,-0.97 -0.68,-1.11 -0.49,-1.19 -0.29,-1.27 -0.08,-1.29 0.12,-1.30 0.33,-1.25 0.53,-1.19 0.71,-1.08 0.89,-0.96 1.02,-0.79 1.15,-0.62 1.22,-0.42 1.29,-0.22 1.29,-0.01 1.29,0.19 1.23,0.40 1.16,0.60 1.03,0.77 0.91,0.94 0.73,1.06 0.56,1.18 0.35,1.24 0.15,1.30 -0.05,1.29 -0.26,1.28 -0.46,1.20 -0.66,1.13 -0.82,0.99 -0.99,0.86 -1.10,0.67 -1.21,0.49 -1.26,0.29 -1.31,0.08 -1.28,-0.12 -1.26,-0.33 -1.26,-0.33 -1.26,-0.33 -1.21,-0.48 -1.15,-0.63 -1.05,-0.76 -0.96,-0.88 -0.84,-0.99 -0.72,-1.09 -0.58,-1.16 -0.44,-1.23 -0.28,-1.27 -0.13,-1.30 0.02,-1.30 0.18,-1.30 0.33,-1.25 0.48,-1.21 0.62,-1.14 0.76,-1.06 0.88,-0.95 0.99,-0.85 1.08,-0.72 1.17,-0.58 1.22,-0.43 1.28,-0.29 1.29,-0.13 1.31,0.02 1.29,0.18 1.26,0.33 1.57,0.41 1.87,0.49 1.78,0.71 1.69,0.93 1.56,1.12 1.42,1.31 1.24,1.46 1.07,1.61 0.86,1.71 0.65,1.82 0.42,1.87 0.19,1.92 -0.03,1.92 -0.26,1.91 -0.49,1.85 -0.72,1.79 -0.92,1.68 -1.13,1.57 -1.30,1.41 -1.47,1.25 -1.60,1.06 -1.73,0.86 -1.81,0.64 -1.88,0.42 -1.91,0.19 -1.93,-0.03 -1.90,-0.26 -1.87,-0.49 -1.87,-0.49 L -1.87,-0.49 Z"></path></g><g stroke-linecap="round" transform="translate(226.54034254377086 93.55718219126585) rotate(0 229.0375649326486 181.15207779647017)"><path d="M-1.7 -0.96 C104.62 1.18, 204.26 0.5, 459.28 0.76 M460.14 -2.45 C460.77 73.89, 460.34 147.72, 455.59 364.27 M457.89 360.52 C364.73 358.64, 272.4 357.27, 1.3 362.88 M0.89 364.72 C5.19 263.35, 5.5 160.76, 0.17 -0.81" stroke="#1e1e1e" stroke-width="4.5" fill="none" stroke-dasharray="8 12"></path></g></svg>